<?xml version="1.0" encoding="UTF-8" standalone="no"?> <svg width="64" height="64" viewBox="0 0 64 64" fill="none" xmlns="http://www.w3.org/2000/svg">
<path d="M57.71 32.07H54L36 20.33C36.1598 19.8837 36.2443 19.414 36.25 18.94C36.2475 17.9931 35.9251 17.0749 35.3352 16.3343C34.7452 15.5937 33.9224 15.0742 33 14.86V12.47C33.6349 12.2881 34.1935 11.9051 34.592 11.3786C34.9906 10.852 35.2074 10.2104 35.21 9.55V6C35.21 5.20435 34.894 4.44129 34.3314 3.87868C33.7688 3.31607 33.0057 3 32.21 3H31.96C31.1644 3 30.4013 3.31607 29.8387 3.87868C29.2761 4.44129 28.96 5.20435 28.96 6V9.55C28.9575 10.184 29.1527 10.803 29.5183 11.321C29.8839 11.8389 30.4018 12.2301 31 12.44V15.73C31 15.9952 31.1054 16.2496 31.2929 16.4371C31.4805 16.6246 31.7348 16.73 32 16.73C32.5862 16.73 33.1483 16.9628 33.5627 17.3773C33.9772 17.7917 34.21 18.3539 34.21 18.94C34.215 19.0199 34.215 19.1001 34.21 19.18L32.55 18.1C32.3868 17.9925 32.1955 17.9352 32 17.9352C31.8045 17.9352 31.6133 17.9925 31.45 18.1L29.81 19.18C29.8051 19.1001 29.8051 19.0199 29.81 18.94C29.81 18.6748 29.7047 18.4204 29.5171 18.2329C29.3296 18.0454 29.0753 17.94 28.81 17.94C28.5448 17.94 28.2905 18.0454 28.1029 18.2329C27.9154 18.4204 27.81 18.6748 27.81 18.94C27.7965 19.4106 27.8607 19.8803 28 20.33L10 32.07H6.29004C6.02482 32.07 5.77047 32.1754 5.58293 32.3629C5.3954 32.5504 5.29004 32.8048 5.29004 33.07V60C5.29004 60.2652 5.3954 60.5196 5.58293 60.7071C5.77047 60.8946 6.02482 61 6.29004 61H57.71C57.9753 61 58.2296 60.8946 58.4171 60.7071C58.6047 60.5196 58.71 60.2652 58.71 60V33.07C58.71 32.8048 58.6047 32.5504 58.4171 32.3629C58.2296 32.1754 57.9753 32.07 57.71 32.07ZM30.88 6C30.88 5.73478 30.9854 5.48043 31.1729 5.29289C31.3605 5.10536 31.6148 5 31.88 5H32.13C32.3953 5 32.6496 5.10536 32.8371 5.29289C33.0247 5.48043 33.13 5.73478 33.13 6V9.55C33.13 9.81522 33.0247 10.0696 32.8371 10.2571C32.6496 10.4446 32.3953 10.55 32.13 10.55H31.88C31.6148 10.55 31.3605 10.4446 31.1729 10.2571C30.9854 10.0696 30.88 9.81522 30.88 9.55V6ZM32 20.14L33.1 20.85C32.7688 21.0524 32.3882 21.1594 32 21.1594C31.6119 21.1594 31.2313 21.0524 30.9 20.85L32 20.14ZM29.13 22C29.9037 22.7373 30.9314 23.1486 32 23.1486C33.0687 23.1486 34.0964 22.7373 34.87 22L50.29 32.07H13.71L29.13 22ZM56.71 59H7.29004V34.07H56.71V59Z" fill="black"/>
<path d="M49.7201 35.1699C49.4549 35.1699 49.2005 35.2753 49.013 35.4628C48.8255 35.6504 48.7201 35.9047 48.7201 36.1699V55.7099H46.7801V36.1699C46.7801 35.9047 46.6747 35.6504 46.4872 35.4628C46.2997 35.2753 46.0453 35.1699 45.7801 35.1699H41.8401C41.5749 35.1699 41.3205 35.2753 41.133 35.4628C40.9455 35.6504 40.8401 35.9047 40.8401 36.1699V55.7099H38.9101V36.1699C38.9101 35.9047 38.8047 35.6504 38.6172 35.4628C38.4297 35.2753 38.1753 35.1699 37.9101 35.1699H34.0001C33.7349 35.1699 33.4805 35.2753 33.293 35.4628C33.1055 35.6504 33.0001 35.9047 33.0001 36.1699V55.7099H31.0001V36.1699C31.0001 35.9047 30.8947 35.6504 30.7072 35.4628C30.5197 35.2753 30.2653 35.1699 30.0001 35.1699H26.0901C25.8249 35.1699 25.5705 35.2753 25.383 35.4628C25.1955 35.6504 25.0901 35.9047 25.0901 36.1699V55.7099H23.1601V36.1699C23.1601 35.9047 23.0547 35.6504 22.8672 35.4628C22.6797 35.2753 22.4253 35.1699 22.1601 35.1699H18.2201C17.9549 35.1699 17.7005 35.2753 17.513 35.4628C17.3255 35.6504 17.2201 35.9047 17.2201 36.1699V55.7099H15.2801V36.1699C15.2801 35.9047 15.1747 35.6504 14.9872 35.4628C14.7997 35.2753 14.5453 35.1699 14.2801 35.1699H10.3501C10.0849 35.1699 9.83053 35.2753 9.64299 35.4628C9.45545 35.6504 9.3501 35.9047 9.3501 36.1699V56.7099C9.3501 56.9751 9.45545 57.2295 9.64299 57.417C9.83053 57.6046 10.0849 57.7099 10.3501 57.7099C10.6153 57.7099 10.8697 57.6046 11.0572 57.417C11.2447 57.2295 11.3501 56.9751 11.3501 56.7099V37.1699H13.2801V56.7099C13.2801 56.9751 13.3855 57.2295 13.573 57.417C13.7605 57.6046 14.0149 57.7099 14.2801 57.7099H18.2201C18.4853 57.7099 18.7397 57.6046 18.9272 57.417C19.1147 57.2295 19.2201 56.9751 19.2201 56.7099V37.1699H21.1601V56.7099C21.1601 56.9751 21.2655 57.2295 21.453 57.417C21.6405 57.6046 21.8949 57.7099 22.1601 57.7099H26.0901C26.3553 57.7099 26.6097 57.6046 26.7972 57.417C26.9847 57.2295 27.0901 56.9751 27.0901 56.7099V37.1699H29.0001V56.7099C29.0001 56.9751 29.1055 57.2295 29.293 57.417C29.4805 57.6046 29.7349 57.7099 30.0001 57.7099H34.0001C34.2653 57.7099 34.5197 57.6046 34.7072 57.417C34.8947 57.2295 35.0001 56.9751 35.0001 56.7099V37.1699H36.9401V56.7099C36.9401 56.9751 37.0455 57.2295 37.233 57.417C37.4205 57.6046 37.6749 57.7099 37.9401 57.7099H41.8701C42.1353 57.7099 42.3897 57.6046 42.5772 57.417C42.7647 57.2295 42.8701 56.9751 42.8701 56.7099V37.1699H44.8101V56.7099C44.8101 56.9751 44.9155 57.2295 45.103 57.417C45.2905 57.6046 45.5449 57.7099 45.8101 57.7099H49.7501C50.0153 57.7099 50.2697 57.6046 50.4572 57.417C50.6447 57.2295 50.7501 56.9751 50.7501 56.7099V37.1699H53.6801C53.9453 37.1699 54.1997 37.0646 54.3872 36.877C54.5747 36.6895 54.6801 36.4351 54.6801 36.1699C54.6801 35.9047 54.5747 35.6504 54.3872 35.4628C54.1997 35.2753 53.9453 35.1699 53.6801 35.1699H49.7201Z" fill="black"/>
<path d="M53.6499 38.6104C53.3847 38.6104 53.1303 38.7157 52.9428 38.9032C52.7553 39.0908 52.6499 39.3451 52.6499 39.6104V56.7104C52.6499 56.9756 52.7553 57.2299 52.9428 57.4175C53.1303 57.605 53.3847 57.7104 53.6499 57.7104C53.9151 57.7104 54.1695 57.605 54.357 57.4175C54.5445 57.2299 54.6499 56.9756 54.6499 56.7104V39.6104C54.6499 39.3451 54.5445 39.0908 54.357 38.9032C54.1695 38.7157 53.9151 38.6104 53.6499 38.6104Z" fill="black"/>
</svg>
