<?xml version="1.0" encoding="utf-8"?>
<!-- Generator: Adobe Illustrator 24.3.0, SVG Export Plug-In . SVG Version: 6.00 Build 0)  -->
<svg version="1.1" id="Layer_1" xmlns="http://www.w3.org/2000/svg" xmlns:xlink="http://www.w3.org/1999/xlink" x="0px" y="0px"
	 viewBox="0 0 338.6605 304.1478" enable-background="new 0 0 338.6605 304.1478" xml:space="preserve">
<g>
	<path d="M187.9823,73.1791v78.3208c0,5.243,3.3851,9.6997,8.0801,11.3293c-0.0005-0.0641-0.0049-0.1274-0.0049-0.1917
		c0-1.3628,0.1137-2.6992,0.3246-4.0034c-2.6057-1.3205-4.3998-4.0189-4.3998-7.1343V73.1791c0-4.4111,3.5889-8,8-8h121v-4h-121
		C193.3656,61.1791,187.9823,66.5624,187.9823,73.1791z"/>
	<path d="M320.9823,163.4999v-4h-44.3585c0.6404,1.2697,1.2734,2.5972,1.8974,4H320.9823z"/>
	<path d="M285.7451,239.3596c-0.1697,0.0377-0.3402,0.0716-0.5133,0.103c-2.06,0.3617-4.0862,0.1674-5.936-0.4612V287.5h41.6864v-56
		h-26.4816C293.1985,235.3454,289.9846,238.4174,285.7451,239.3596z"/>
	<path d="M209.3872,244.5896c-1.2252-4.5394-2.3513-8.9014-3.3787-13.0896h-12.5264v56h23.7218v-34.6486
		C213.5004,251.6261,210.4784,248.6297,209.3872,244.5896z"/>
	<rect x="294.1669" y="97.9275" transform="matrix(0.7071 -0.7071 0.7071 0.7071 8.1824 240.9639)" width="1.587" height="25.355"/>
	
		<rect x="299.1606" y="92.9337" transform="matrix(0.7071 -0.7071 0.7071 0.7071 13.1798 243.0402)" width="1.587" height="25.355"/>
	
		<rect x="296.6637" y="81.809" transform="matrix(0.7071 -0.7071 0.7071 0.7071 10.6793 241.9984)" width="1.587" height="52.5983"/>
	<path d="M0,6.5h39.0491v12.7359c-1.4899,0.5594-2.8397,1.7238-3.8569,3.4022l-9.3848,15.4839
		c-1.4722,2.4287-1.6948,4.9253-0.6108,6.8496s3.3345,3.0283,6.1748,3.0283h19.3555c2.8398,0,5.0903-1.1035,6.1743-3.0278
		c1.084-1.9248,0.8613-4.4214-0.6104-6.8501l-9.3848-15.4839c-1.0173-1.6781-2.3671-2.8425-3.857-3.402V6.5h107.0316v12.7361
		c-1.4899,0.5595-2.8398,1.7238-3.8572,3.4019l-9.3843,15.4839c-1.4722,2.4287-1.6948,4.9253-0.6108,6.8496
		c1.084,1.9248,3.3345,3.0283,6.1748,3.0283h0.5834c0.0031,0.0208,0.0032,0.0413,0.0064,0.062l8.2026,53.167l-26.692,16.9675
		H86.0193c-0.8923,0-1.7455,0.1588-2.5428,0.4369c-18.9298,4.449-19.6614,36.111-19.9048,46.7211
		c-0.438,19.0654,1.8804,37.4033,1.9795,38.1748c0.311,2.4258,1.6819,4.4512,3.5837,5.6865
		c0.6426,0.4174,1.3435,0.7465,2.0882,0.9666l-8.1321,18.9045c-1.7715,4.1182-1.1523,8.875,1.6143,12.4014l34.8467,44.4209v5.7686
		c0,6.7656,5.4844,12.25,12.25,12.25s12.25-5.4844,12.25-12.25v-10c0-2.7412-0.9199-5.4043-2.6113-7.5605l-32.9697-42.0293
		l8.0351-18.6793l4.8877-11.3624h6.2607v50.7698l15.5958,19.8813c2,2.5498,3.1016,5.7393,3.1016,8.9805v10
		c0,5.2706-2.8268,9.8819-7.0346,12.4349c0.2332,0.0131,0.464,0.0353,0.7005,0.0353c6.8282,0,12.3653-5.5332,12.3653-12.3633
		V174.845c0-0.002-0.0003-0.004-0.0003-0.006v-42.6913l31.8087-20.2205c2.6802-1.7041,4.0986-4.8325,3.6143-7.9712l-8.6332-55.9561
		h2.5858c2.8403,0,5.0908-1.1035,6.1748-3.0283c1.084-1.9243,0.8613-4.4209-0.6108-6.8496l-9.3843-15.4839
		c-1.0175-1.6782-2.3674-2.8425-3.8572-3.402V6.5h107.0316v12.7361c-1.4897,0.5595-2.8396,1.7238-3.857,3.4019l-9.3848,15.4839
		c-1.4717,2.4287-1.6943,4.9253-0.6104,6.8501c1.084,1.9243,3.3345,3.0278,6.1743,3.0278h19.3555
		c2.8403,0,5.0908-1.104,6.1748-3.0283s0.8613-4.4209-0.6108-6.8496l-9.3848-15.4839c-1.0172-1.6784-2.3669-2.8428-3.8569-3.4022
		V6.5h73.5483V0H0V6.5z M52.87,40.1952c0.6914,1.1411,0.8955,2.1929,0.5464,2.8135c-0.3496,0.6206-1.355,0.9912-2.6895,0.9912
		H31.3715c-1.3345,0-2.3398-0.3706-2.6895-0.9912s-0.1455-1.6724,0.5464-2.8135l9.3848-15.4839
		c0.7158-1.1812,1.6035-1.8584,2.4355-1.8584c0.8325-0.0005,1.7207,0.6772,2.4365,1.8584L52.87,40.1952z M163.9012,40.1952
		c0.6919,1.1411,0.896,2.1929,0.5464,2.8135s-1.355,0.9912-2.6895,0.9912h-3.382c-1.31-3.4579-4.8947-5.6543-8.6966-5.064
		c-2.9462,0.4543-5.2618,2.4647-6.2532,5.064h-1.0231c-1.3345,0-2.3398-0.3706-2.6895-0.9912s-0.1455-1.6724,0.5464-2.8135
		l9.3843-15.4839c0.7158-1.1812,1.604-1.8584,2.4365-1.8584c0.832,0,1.7202,0.6772,2.436,1.8584L163.9012,40.1952z M274.933,40.1952
		c0.6919,1.1411,0.896,2.1929,0.5464,2.8135s-1.355,0.9912-2.6895,0.9912h-19.3555c-1.3345,0-2.3398-0.3706-2.6895-0.9912
		c-0.3491-0.6206-0.145-1.6724,0.5464-2.8135l9.3848-15.4839c0.7158-1.1812,1.604-1.8589,2.4365-1.8584
		c0.832,0,1.7197,0.6772,2.4355,1.8584L274.933,40.1952z"/>
	<path d="M246.0575,162.6375c0,13.7852-11.2148,25-25,25c-7.6527,0-14.5094-3.4596-19.0989-8.8931
		c-0.124,14.9319,3.6255,36.4029,11.2905,64.8028c0.7509,2.7809,2.8815,4.8156,5.4543,5.5802V223.402
		c0-8.1953,6.668-14.8633,14.8633-14.8633c7.444,0,13.6102,5.506,14.6826,12.6552c1.0724-7.1492,7.2375-12.6552,14.6807-12.6552
		c8.1963,0,14.8652,6.668,14.8652,14.8633v10.1925c1.7649,1.5827,4.2078,2.3737,6.7238,1.9319
		c0.1212-0.0219,0.2401-0.0453,0.3583-0.0716c4.1516-0.9227,6.8806-4.9606,6.1384-9.1913
		c-8.3217-47.4037-18.2785-73.6049-30.4391-80.0998c-3.0211-1.6132-5.67-1.8085-7.5887-1.5924
		c-0.3685,0.0276-0.7382,0.0723-1.1091,0.1547l-11.1718,2.4829C244.0535,151.4618,246.0575,156.8184,246.0575,162.6375z"/>
	<path d="M221.2037,290.5677c0,6.8301,5.5371,12.3633,12.3633,12.3633c6.8281,0,12.3652-5.5331,12.3652-12.3633V223.402
		c0-6.83-5.5371-12.3632-12.3652-12.3632c-6.8262,0-12.3633,5.5332-12.3633,12.3632V290.5677z"/>
	<path d="M262.9302,211.0388c-6.8261,0-12.3632,5.5332-12.3632,12.3632v67.1657c0,6.8301,5.5371,12.3633,12.3632,12.3633
		c6.8282,0,12.3653-5.5331,12.3653-12.3633V223.402C275.2955,216.572,269.7584,211.0388,262.9302,211.0388z"/>
	<path d="M100.9814,111.7949c11.8625,3.7056,24.4801-2.9062,28.1854-14.7676c3.7053-11.8615-2.9052-24.4797-14.7676-28.1854
		c-11.8605-3.705-24.48,2.9061-28.1854,14.7676C82.5084,95.4709,89.1209,108.0898,100.9814,111.7949z M118.9633,86.7952
		c1.824,0,3.3027,1.4787,3.3027,3.3027c0,1.8241-1.4787,3.3028-3.3027,3.3028c-1.8241,0-3.3028-1.4787-3.3028-3.3028
		C115.6605,88.2739,117.1392,86.7952,118.9633,86.7952z M105.5872,91.254c1.824,0,3.3027,1.4786,3.3027,3.3027
		c0,1.824-1.4787,3.3027-3.3027,3.3027c-1.8241,0-3.3027-1.4787-3.3027-3.3027C102.2844,92.7326,103.7631,91.254,105.5872,91.254z"
		/>
	<circle cx="221.0578" cy="162.6375" r="22.5"/>
	<path d="M227.4989,107.4696h-12.3086l-0.8369,4.8047l2.5913-0.1348l0.2974-1.4849c0.1079-0.5669,0.2695-0.8369,0.9175-0.8369
		h5.1289l-10.6895,13.2808l-0.4316,2.3213h12.7134l0.8369-4.8047l-2.5913,0.1079l-0.3242,1.5654
		c-0.1079,0.6211-0.2695,0.7832-0.8906,0.7832h-5.5063l10.6621-13.2808L227.4989,107.4696z"/>
	<path d="M239.1639,111.8153h-9.9873l-0.7017,4.1299l2.5103-0.1348l0.2427-1.0796c0.1079-0.5669,0.27-0.6748,0.7827-0.6748h3.6714
		l-8.4219,9.1772l0.2969,2.2676c0.6206-0.1353,1.4038-0.3242,2.1865-0.3242c1.7275,0,3.3472,0.6211,5.2905,0.6211
		c0.9985,0,1.9434-0.189,2.834-0.54l0.7021-3.9946l-2.5645,0.1616l-0.2969,1.4307c-0.1353,0.459-0.4048,0.5669-1.0259,0.5669
		c-1.1875,0-1.8354-0.3779-2.9419-0.3779c-0.3511,0-0.5669,0.0542-0.8101,0.0811l8.6919-9.4204L239.1639,111.8153z"/>
	<path d="M252.205,111.8153h-9.9873l-0.7017,4.1299l2.5103-0.1348l0.2427-1.0796c0.1079-0.5669,0.27-0.6748,0.7827-0.6748h3.6714
		l-8.4219,9.1772l0.2969,2.2676c0.6206-0.1353,1.4038-0.3242,2.1865-0.3242c1.7275,0,3.3472,0.6211,5.2905,0.6211
		c0.9985,0,1.9434-0.189,2.834-0.54l0.7021-3.9946l-2.5645,0.1616l-0.2969,1.4307c-0.1353,0.459-0.4048,0.5669-1.0259,0.5669
		c-1.1875,0-1.8354-0.3779-2.9419-0.3779c-0.3511,0-0.5669,0.0542-0.8101,0.0811l8.6919-9.4204L252.205,111.8153z"/>
	<path d="M253.2611,124.2323c0,0.9443,0.5669,1.5386,1.6733,1.5386c1.377,0,2.2676-1.0259,2.2676-2.2407
		c0-0.8906-0.5938-1.4844-1.6733-1.4844C254.2059,122.0458,253.2611,122.9633,253.2611,124.2323z"/>
	<path d="M259.4974,124.2323c0,0.9443,0.5669,1.5386,1.6733,1.5386c1.377,0,2.2676-1.0259,2.2676-2.2407
		c0-0.8906-0.5938-1.4844-1.6733-1.4844C260.4423,122.0458,259.4974,122.9633,259.4974,124.2323z"/>
	<path d="M265.7343,124.2323c0,0.9443,0.5669,1.5386,1.6733,1.5386c1.377,0,2.2676-1.0259,2.2676-2.2407
		c0-0.8906-0.5938-1.4844-1.6733-1.4844C266.6791,122.0458,265.7343,122.9633,265.7343,124.2323z"/>
</g>
</svg>
