<?xml version="1.0" encoding="utf-8"?>
<!-- Generator: Adobe Illustrator 23.0.3, SVG Export Plug-In . SVG Version: 6.00 Build 0)  -->
<svg version="1.1" id="Layer_1" xmlns="http://www.w3.org/2000/svg" xmlns:xlink="http://www.w3.org/1999/xlink" x="0px" y="0px"
	 viewBox="0 0 50 50" style="enable-background:new 0 0 50 50;" xml:space="preserve">
<style type="text/css">
	.st0{fill:#979FEF;}
	.st1{fill:#FDBF00;}
	.st2{fill:#A3B300;}
	.st3{fill:#696969;}
	.st4{fill:#EFEFEF;}
	.st5{fill:#FF6C6C;}
	.st6{fill:#151515;}
	.st7{fill:#0D0D0D;}
	.st8{fill:#161616;}
	.st9{fill:#0E0E0E;}
	.st10{fill:#121212;}
	.st11{fill:#FCFCFC;}
	.st12{fill:#131313;}
	.st13{fill:#FFFFFF;}
	.st14{fill:#1B1B1B;}
	.st15{fill:#040404;}
	.st16{fill:#030303;}
	.st17{fill:#050505;}
	.st18{fill:#181818;}
	.st19{fill:#F2F2F2;}
	.st20{fill:#010101;}
	.st21{fill:#020202;}
	.st22{fill:#191919;}
	.st23{fill:#101010;}
	.st24{fill:#0F0F0F;}
	.st25{fill:#F7F7F7;}
	.st26{fill:#171717;}
	.st27{fill:#17132C;}
	.st28{fill:#FF7955;}
	.st29{fill:#F87D53;}
	.st30{fill:#FE7A49;}
	.st31{fill:#FE764C;}
	.st32{fill:#FA7A4B;}
	.st33{fill:url(#SVGID_1_);}
	.st34{fill:url(#SVGID_2_);}
	.st35{fill:url(#SVGID_3_);}
	.st36{fill:url(#SVGID_4_);}
	.st37{fill:url(#SVGID_5_);}
	.st38{fill:url(#SVGID_6_);}
	.st39{fill:url(#SVGID_7_);}
	.st40{fill:url(#SVGID_8_);}
	.st41{fill:url(#SVGID_9_);}
	.st42{fill:#FFA446;}
	.st43{fill:#FFA746;}
	.st44{fill:#FAA249;}
</style>
<g>
	<path d="M24.1,38.7c-0.5,0-0.9,0.3-0.9,0.8c0,0.5,0.1,0.9,0.7,0.9c0.6,0.1,1-0.3,1-0.8C25,39.1,24.6,38.8,24.1,38.7z"/>
	<path d="M26,11.3c0.5,0,0.8-0.4,0.8-0.9c0-0.5-0.3-0.9-0.8-0.8c-0.6,0-1,0.3-1,0.8C25.1,10.9,25.4,11.3,26,11.3z"/>
	<path d="M43.2,36.6c0-1-0.4-1.8-1.4-1.6c-2,0.3-2.5-0.6-2.2-2.3c0.1-0.4,0.1-0.8,0-1.2c-0.2-1.5,0.2-2.3,1.9-2
		c1.2,0.2,1.8-0.3,1.7-1.6c-0.1-2,0-4,0-6c0-1-0.4-1.6-1.4-1.4c-2.2,0.4-2.4-0.8-2.2-2.5c0-0.4,0.1-0.9,0-1.4
		c-0.2-1.3,0.3-1.8,1.6-1.6c1.4,0.2,2.1-0.4,2-1.9c-0.1-1.6,0-3.2,0-4.8c0-2.4,0-2.4-2.3-2.4c-0.7,0-1.4,0.2-1.3-1
		c0.2-1.5-0.6-1.9-2-1.8c-0.6,0.1-1.3,0-1.9,0c-1.2-0.1-1.7,0.4-1.6,1.6C34.2,5.6,34,5.9,33,5.9c-5.3,0-10.7,0-16,0
		c-0.9,0-1.2-0.3-1.1-1.2c0.1-0.6,0-1.4-0.7-1.5c-1.3-0.1-2.6-0.1-3.9,0c-0.6,0-0.9,0.7-0.8,1.2C10.8,6.1,9.8,6,8.7,5.9
		C7.4,5.8,6.8,6.2,6.8,7.6c0.1,1.9,0,3.9,0,5.8c0,1,0.4,1.8,1.4,1.6c2-0.3,2.5,0.6,2.2,2.3c-0.1,0.4-0.1,0.8,0,1.2
		c0.2,1.5-0.2,2.3-1.9,2c-1.2-0.2-1.8,0.3-1.7,1.6c0.1,2,0,4,0,6c0,1,0.4,1.6,1.4,1.4c2.2-0.4,2.4,0.8,2.2,2.5c-0.1,0.7-0.1,1.4,0,2
		c0.1,0.7-0.2,0.9-1,1c-2.6,0.1-2.6,0.2-2.6,2.8c0,0.6,0,1.1,0,1.7c0,0.6,0,1.1,0,1.7c0,2.7,0,2.8,2.7,2.9c0.7,0,1,0.2,0.9,1
		c-0.1,1.5,0.6,1.9,2,1.8c0.6-0.1,1.3,0,1.9,0c1.2,0.1,1.7-0.4,1.6-1.6c-0.1-0.9,0.2-1.2,1.1-1.2c5.3,0,10.7,0,16,0
		c0.9,0,1.2,0.3,1.1,1.2c-0.1,0.6,0,1.4,0.7,1.5c1.3,0.1,2.6,0.1,3.9,0c0.6,0,0.9-0.7,0.8-1.2c-0.3-1.6,0.7-1.6,1.8-1.5
		c1.3,0.1,1.9-0.3,1.8-1.7C43.1,40.5,43.1,38.5,43.2,36.6z M40.6,22.2c0.9,0,0.8,0.5,0.8,1.1c0,0.5,0,1,0,1.5c0,0.7,0,1.4,0,2
		c0.1,0.7-0.3,0.9-0.9,0.8c-0.6,0-1-0.1-0.9-0.8c0.1-1.2,0-2.4,0-3.6C39.6,22.6,39.7,22.2,40.6,22.2z M39.6,8.6c0-0.8,0.3-0.9,1-0.9
		c0.7,0,0.8,0.4,0.8,1c0,0.6,0,1.2,0,1.9c0,0.6,0,1.2,0,1.9c0.1,0.7-0.3,0.8-0.9,0.8c-0.6,0-0.9-0.1-0.9-0.8
		C39.6,11.1,39.6,9.9,39.6,8.6z M9.5,13.2c-0.6,0-0.9-0.1-0.9-0.8c0-1.2,0-2.5,0-3.7c0-0.6,0.1-0.9,0.8-0.9c0.7,0,1,0.2,1,0.9
		c0,0.6,0,1.2,0,1.9c0,0.6,0,1.2,0,1.9C10.5,13.1,10.1,13.2,9.5,13.2z M9.6,27.7c-0.6,0-1-0.1-0.9-0.8c0.1-1.2,0-2.4,0-3.6
		c0-0.7,0.1-1.1,1-1.1c0.9,0,0.9,0.5,0.8,1.1c0,0.5,0,1,0,1.5c0,0.7,0,1.4,0,2C10.5,27.6,10.2,27.7,9.6,27.7z M9.4,42.3
		c-0.8,0-0.8-0.4-0.8-1c0-0.6,0-1.2,0-1.9s0-1.2,0-1.9c-0.1-0.7,0.4-0.8,0.9-0.8c0.6,0,0.9,0.2,0.9,0.9c0,1.2,0,2.5,0,3.7
		C10.5,42.2,10.1,42.3,9.4,42.3z M13.3,45c-1.3,0.1-1-0.8-1-1.5c0-12.4,0-24.8,0-37.1c0-0.7-0.3-1.5,1-1.5c1.2,0.1,0.8,0.9,0.8,1.5
		c0,6.2,0,12.4,0,18.6s0,12.4,0,18.6C14.1,44.1,14.6,45,13.3,45z M20.1,7.7c4.3,0,8.5,0,12.8,0c0.7,0,1.4-0.1,1.3,1
		c0,1-0.7,0.9-1.3,0.9c-1.3,0-2.6,0-3.9,0c-0.6,0-1.1,0.2-1.1,0.8c-0.1,0.7,0.5,1,1.1,1c1.4,0,2.8,0,4.3,0c0.6,0,1,0,1,0.8
		c0,0.7-0.2,1-1,1c-2.8,0-5.6,0-8.4,0c-2.6,0-5.1,0-7.7,0c-0.9,0-1.3-0.2-1.3-1.2C15.8,7.7,15.7,7.7,20.1,7.7z M20,22.3
		c4.3,0,8.5,0,12.8,0c1.1,0,1.4,0.3,1.4,1.4c0,4.1,0,4.1-4,4.1c-1.8,0-3.5,0-5.3,0c-2.6,0-5.2,0-7.8,0c-0.9,0-1.1-0.2-1.2-1.1
		C15.8,22.3,15.7,22.3,20,22.3z M15.9,33.7c0-4.1-0.1-4.1,4-4.1c4.2,0,8.5,0,12.7,0c1.1,0,1.6,0.2,1.6,1.4c0,4,0,4-4.1,4
		c-1.7,0-3.4,0-5.1,0c-2.6,0-5.2,0-7.8,0C16.1,35,15.9,34.7,15.9,33.7z M30,42.3c-1.7,0-3.4,0-5.1,0c-2.6,0-5.2,0-7.8,0
		c-0.7,0-1.2,0-1.2-1c0-1,0.6-0.9,1.2-0.9c1.2,0,2.5,0,3.7,0c0.7,0,1.4-0.1,1.3-0.9c0-0.8-0.7-0.9-1.4-0.9c-1.3,0-2.6,0-3.9,0
		c-0.7,0-1-0.2-1-0.9c0-0.7,0.3-0.9,0.9-0.9c5.5,0,10.9,0,16.4,0c0.7,0,1.1,0.2,1,1c0,0.1,0,0.1,0,0.2C34.3,42.3,34.3,42.3,30,42.3z
		 M30.1,20.5c-4.2,0-8.5,0-12.7,0c-1.1,0-1.4-0.3-1.4-1.4c0-4.1-0.1-4.1,4-4.1c1.8,0,3.5,0,5.3,0c2.6,0,5.2,0,7.8,0
		c0.9,0,1.1,0.2,1.2,1.1C34.3,20.5,34.3,20.5,30.1,20.5z M37.7,43.6c0,0.7,0.3,1.5-1,1.5c-1.2-0.1-0.8-0.9-0.8-1.5
		c0-6.2,0-12.5,0-18.7c0-6.1,0-12.3,0-18.4C36,5.9,35.5,5,36.7,5c1.3-0.1,1,0.8,1,1.5C37.7,18.8,37.7,31.2,37.7,43.6z M41.4,39.7
		c0,0.6,0,1.2,0,1.9c0,0.6-0.2,0.8-0.8,0.8c-0.6,0-1,0-1-0.8c0-1.3,0-2.6,0-3.9c0-0.7,0.3-0.8,0.9-0.8c0.6,0,1,0.1,0.9,0.8
		C41.3,38.3,41.4,39,41.4,39.7z"/>
</g>
</svg>
