<?xml version="1.0" encoding="utf-8"?>
<!-- Generator: Adobe Illustrator 23.0.3, SVG Export Plug-In . SVG Version: 6.00 Build 0)  -->
<svg version="1.1" id="Layer_1" xmlns="http://www.w3.org/2000/svg" xmlns:xlink="http://www.w3.org/1999/xlink" x="0px" y="0px"
	 viewBox="0 0 50 50" style="enable-background:new 0 0 50 50;" xml:space="preserve">
<style type="text/css">
	.st0{fill:#979FEF;}
	.st1{fill:#FDBF00;}
	.st2{fill:#A3B300;}
	.st3{fill:#696969;}
	.st4{fill:#EFEFEF;}
	.st5{fill:#FF6C6C;}
	.st6{fill:#151515;}
	.st7{fill:#0D0D0D;}
	.st8{fill:#161616;}
	.st9{fill:#0E0E0E;}
	.st10{fill:#121212;}
	.st11{fill:#FCFCFC;}
	.st12{fill:#131313;}
	.st13{fill:#FFFFFF;}
	.st14{fill:#1B1B1B;}
	.st15{fill:#040404;}
	.st16{fill:#030303;}
	.st17{fill:#050505;}
	.st18{fill:#181818;}
	.st19{fill:#F2F2F2;}
	.st20{fill:#010101;}
	.st21{fill:#020202;}
	.st22{fill:#191919;}
	.st23{fill:#101010;}
	.st24{fill:#0F0F0F;}
	.st25{fill:#F7F7F7;}
	.st26{fill:#171717;}
	.st27{fill:#17132C;}
	.st28{fill:#FF7955;}
	.st29{fill:#F87D53;}
	.st30{fill:#FE7A49;}
	.st31{fill:#FE764C;}
	.st32{fill:#FA7A4B;}
	.st33{fill:url(#SVGID_1_);}
	.st34{fill:url(#SVGID_2_);}
	.st35{fill:url(#SVGID_3_);}
	.st36{fill:url(#SVGID_4_);}
	.st37{fill:url(#SVGID_5_);}
	.st38{fill:url(#SVGID_6_);}
	.st39{fill:url(#SVGID_7_);}
	.st40{fill:url(#SVGID_8_);}
	.st41{fill:url(#SVGID_9_);}
	.st42{fill:#FFA446;}
	.st43{fill:#FFA746;}
	.st44{fill:#FAA249;}
</style>
<g>
	<path class="st20" d="M45.2,45c-0.8,0.1-1.1-0.1-1.1-1c0-0.8,0.4-0.9,1.1-0.9c0.7,0,1.7,0.1,1.6-1c-0.1-0.9-0.9-0.8-1.6-0.8
		c-13.4,0-26.8,0-40.2,0c-0.7,0-1.6-0.1-1.6,0.8c-0.1,1.1,0.9,1,1.6,1c0.6,0,1,0,1.1,0.9c0,0.9-0.4,1.1-1.1,1
		c-1.4-0.1-1.9,0.4-1.3,1.8c14.3,0,28.6,0,43,0C47.1,45.4,46.6,44.9,45.2,45z M9.2,45c-0.6-0.1-1.5,0.3-1.5-0.9
		c0-1.1,0.7-0.9,1.4-0.9c0.5,0.1,1.3-0.3,1.3,0.8C10.5,45,10,45,9.2,45z M13.6,45c-0.7,0-1.3,0.1-1.3-1c0-1.1,0.8-0.8,1.4-0.9
		c0.6,0,1.4-0.2,1.4,0.9C15.1,45.2,14.3,44.9,13.6,45z M18.2,45c-0.6,0-1.3,0.3-1.4-0.9c0-1.2,0.7-1,1.4-1c0.6,0,1.4-0.3,1.4,0.9
		C19.7,45.2,18.9,45,18.2,45z M24,44.7c-1.9,0.7-3,0.4-2.7-0.8c0.4-1.5,1.3-1,2.2-0.7c0.2,0,0.3,0.1,0.5,0.1
		C24,43.8,24,44.3,24,44.7z M27.4,45c-0.7,0-1.4,0.2-1.5-0.9c0-1.1,0.6-1,1.3-1c0.7,0,1.5-0.3,1.5,1C28.7,45.2,27.9,44.9,27.4,45z
		 M32.1,45c-0.9,0-1.7,0.2-1.6-1c0-1.2,0.8-0.8,1.4-0.9c0.7,0,1.5-0.2,1.4,1C33.2,45.3,32.4,44.9,32.1,45z M36.3,44.9
		C35.6,45,35,45,35,44.1c0-1.4,1-0.9,1.7-1c0.7-0.1,1.1,0.1,1.1,1C37.8,45.4,36.8,44.8,36.3,44.9z M41.1,45c-0.8,0-1.6,0.2-1.5-1
		c0-1,0.6-0.9,1.2-0.9c0.6,0.1,1.5-0.4,1.5,0.9C42.4,45.1,41.7,45,41.1,45z"/>
	<g>
		<path d="M39.6,26c-0.5-0.1-0.9,0.2-0.9,0.7c-0.1,0.6,0.2,1,0.8,1c0.5,0,0.8-0.3,0.9-0.8C40.4,26.3,40.2,26,39.6,26z"/>
		<path d="M24.7,25.9c-0.5,0-0.8,0.4-0.8,0.9c0,0.5,0.3,0.8,0.9,0.9c0.5-0.1,0.9-0.4,0.9-1C25.6,26.1,25.2,25.8,24.7,25.9z"/>
		<path d="M10.3,27.7c0.6,0.1,0.9-0.3,1.1-0.9c-0.1-0.4-0.3-0.8-0.9-0.8c-0.5,0-0.9,0.3-0.9,0.8C9.6,27.2,9.8,27.6,10.3,27.7z"/>
		<path d="M25,17.5c2,0,3.6-1.5,3.7-3.5c0.1-2-1.7-3.7-3.6-3.7c-1.9,0-3.6,1.7-3.6,3.6C21.4,15.9,23,17.5,25,17.5z M25,12.2
			c1.1,0,1.8,0.6,1.8,1.8c0,1.1-0.6,1.7-1.7,1.7c-1.2,0-1.7-0.6-1.8-1.7C23.3,12.9,23.9,12.2,25,12.2z"/>
		<path d="M46.1,20.3c-1.5-1.2-3-2.3-4.4-3.5c-1.5-1.4-3.1-2.1-5.1-1.8c-1.5,0.2-1.8-0.5-1.7-1.8c0.1-1,0.4-2.1-0.7-3
			c-2.7-2.1-5.4-4.3-8.1-6.5c-0.8-0.7-1.4-0.6-2.2,0c-2.1,1.7-4.2,3.5-6.4,5.1c-1.8,1.2-2.9,2.6-2.4,4.9c0.2,1-0.3,1.3-1.2,1.3
			c-1.2,0-2.6-0.5-3.7,0.4C8,17,5.9,18.7,3.8,20.4c-0.4,0.3-0.9,0.9-0.3,1.3c1,0.8,0.7,1.8,0.7,2.8c0,4.1,0,8.3,0,12.4
			c0,2.6,0,2.6,2.5,2.6c6.1,0,12.2,0,18.2,0c6.4,0,12.7,0,19.1,0c1.5,0,2-0.5,2-2c-0.1-4.7,0-9.3,0-14c0-0.5-0.2-1.1,0.4-1.5
			C47.2,21.4,46.8,20.8,46.1,20.3z M13.9,16.7c0.9,0.1,1.3,0.3,1.2,1.2c-0.1,3.1,0.2,2.4-2.4,2.5c-1.8,0-3.5,0-5.3,0
			c-0.1,0-0.1,0-0.7-0.2C9.2,18.7,10.7,16.2,13.9,16.7z M6.9,22.2c2.4,0,4.9,0,7.3,0c0.3,0,0.9-0.1,0.8,0.3c-0.1,1.4,0.6,3-0.6,4.2
			c-1.1,1.1-2.2,2.1-3.2,3.3c-0.9,1.1-2,1.6-3.5,1.2c-0.1-0.7,0.6-0.8,0.9-1.2c0.5-0.6,1.3-1.1,0.6-1.9c-0.8-0.8-1.4,0.1-2,0.6
			c-0.3,0.3-0.6,0.7-0.9,1c-0.1-0.1-0.2-0.1-0.4-0.2c0-2.2,0-4.4,0-6.6C5.9,22.3,6.3,22.2,6.9,22.2z M12.7,31.2
			c0.8-0.7,1.6-1.3,2.3-1.9C15.3,31.5,15.3,31.5,12.7,31.2z M11.9,37.6c-0.5,0-0.9,0-1.4,0c-0.4,0-0.8,0-1.2,0c-3.6,0-3.6,0-3.4-3.6
			c0-0.8,0.3-0.9,1-0.9c2.4,0,4.7,0,7.1,0c0.8,0,1,0.2,1.1,1.1C15.2,37.6,15.3,37.6,11.9,37.6z M16.8,12.9c0-0.8,0.2-1.4,0.8-1.9
			c2.2-1.7,4.3-3.4,6.4-5.1c0.7-0.6,1.1-0.7,1.9-0.1c2.1,1.8,4.3,3.5,6.5,5.2c0.6,0.5,0.8,1,0.8,1.7c0,3.4,0,6.7,0,10.1
			c0,3.3,0,6.6,0,9.9c0,0.7,0.2,1.4-1,1.3c-1.1,0-0.8-0.7-0.8-1.3c0-3.5,0-6.9,0-10.4c0-1.4-0.4-2.1-1.9-2c-3,0.1-6,0.1-9,0
			c-1.5,0-1.9,0.6-1.8,1.9c0.1,3.5,0,6.9,0,10.4c0,0.6,0.2,1.4-0.9,1.4c-1.2,0-0.8-0.8-0.8-1.4C16.9,26.1,16.9,19.5,16.8,12.9z
			 M29.6,32.8c0,0.9-0.1,1.3-1.2,1.3c-2.3-0.1-4.5-0.1-6.8,0c-0.8,0-1.1-0.2-1.1-1.1c0.1-1.7,0-3.4,0-5.1c0-0.6,0.2-1.1,0.7-1.5
			c1-0.9,2-1.8,2.9-2.9c1-1.2,2.1-1.6,4.1-1.2c-0.8,0.7-1.3,1.1-1.8,1.5c-0.4,0.4-0.8,0.9-0.2,1.5c0.5,0.5,1,0.3,1.5-0.2
			c0.5-0.6,1-1.2,1.7-1.9c0.6,0.8,0.3,1.5,0.4,2.1C29.6,27.9,29.5,30.3,29.6,32.8z M22.3,22.4c-0.5,0.5-1.1,1.1-1.6,1.6
			C20.3,22,20.5,21.8,22.3,22.4z M32,37.6c-2.4,0-4.8,0-7.2,0c-2.3,0-4.7,0-7,0c-0.6,0-1.1,0-1.1-0.8c0-0.9,0.4-1,1.1-1
			c4.7,0,9.4,0,14.1,0c0.7,0,1.2-0.1,1.2,0.9C33.2,37.8,32.7,37.6,32,37.6z M44.2,23.1c0.1,1.9,0,3.6-1.7,4.8
			c-0.9,0.6-1.6,1.4-2.3,2.3c-0.9,1.2-2,1.4-3.7,1.1c0.7-0.7,1.2-1.2,1.7-1.8c0.4-0.4,0.5-0.9,0-1.4c-0.4-0.3-0.9-0.2-1.2,0.1
			c-0.5,0.5-1.1,1-1.9,1.8c0-2.6,0-4.9,0-7.1c0-0.7,0.5-0.6,0.9-0.6c2.4,0,4.9,0,7.3,0C43.9,22.2,44.1,22.4,44.2,23.1z M35,17.6
			c0-0.3-0.1-0.8,0.4-0.8c1.4,0.1,2.9-0.6,4.2,0.6c1.1,1,2.2,1.8,3.8,3c-2.8,0-5.1,0-7.4,0c-0.7,0-1-0.3-1-1
			C35,18.8,35,18.2,35,17.6z M40.9,37.6c-0.4,0-0.8,0-1.2,0c-1.1,0-2.2-0.1-3.2,0c-1.3,0.1-1.5-0.4-1.5-1.5c0-3,0-3,3-3
			c1.7,0,3.4,0.1,5.1,0c1-0.1,1.1,0.4,1.1,1.2C44.2,37.6,44.2,37.6,40.9,37.6z M41.6,31.2c1-0.8,1.7-1.5,2.4-2
			C44.6,31.2,44.4,31.5,41.6,31.2z"/>
	</g>
</g>
</svg>
