<?xml version="1.0" encoding="utf-8"?>
<!-- Generator: Adobe Illustrator 23.0.3, SVG Export Plug-In . SVG Version: 6.00 Build 0)  -->
<svg version="1.1" id="Layer_1" xmlns="http://www.w3.org/2000/svg" xmlns:xlink="http://www.w3.org/1999/xlink" x="0px" y="0px"
	 viewBox="0 0 50 50" style="enable-background:new 0 0 50 50;" xml:space="preserve">
<style type="text/css">
	.st0{fill:#979FEF;}
	.st1{fill:#FDBF00;}
	.st2{fill:#A3B300;}
	.st3{fill:#696969;}
	.st4{fill:#EFEFEF;}
	.st5{fill:#FF6C6C;}
	.st6{fill:#151515;}
	.st7{fill:#0D0D0D;}
	.st8{fill:#161616;}
	.st9{fill:#0E0E0E;}
	.st10{fill:#121212;}
	.st11{fill:#FCFCFC;}
	.st12{fill:#131313;}
	.st13{fill:#FFFFFF;}
	.st14{fill:#1B1B1B;}
	.st15{fill:#040404;}
	.st16{fill:#030303;}
	.st17{fill:#050505;}
	.st18{fill:#181818;}
	.st19{fill:#F2F2F2;}
	.st20{fill:#010101;}
	.st21{fill:#020202;}
	.st22{fill:#191919;}
	.st23{fill:#101010;}
	.st24{fill:#0F0F0F;}
	.st25{fill:#F7F7F7;}
	.st26{fill:#171717;}
	.st27{fill:#17132C;}
	.st28{fill:#FF7955;}
	.st29{fill:#F87D53;}
	.st30{fill:#FE7A49;}
	.st31{fill:#FE764C;}
	.st32{fill:#FA7A4B;}
	.st33{fill:url(#SVGID_1_);}
	.st34{fill:url(#SVGID_2_);}
	.st35{fill:url(#SVGID_3_);}
	.st36{fill:url(#SVGID_4_);}
	.st37{fill:url(#SVGID_5_);}
	.st38{fill:url(#SVGID_6_);}
	.st39{fill:url(#SVGID_7_);}
	.st40{fill:url(#SVGID_8_);}
	.st41{fill:url(#SVGID_9_);}
	.st42{fill:#FFA446;}
	.st43{fill:#FFA746;}
	.st44{fill:#FAA249;}
</style>
<g>
	<path d="M27.9,26.4c-1,0-1.9,0-2.9,0c-1,0-1.9,0-2.9,0c-0.6,0-1,0.3-1,0.9c0,0.6,0.5,0.9,1,0.9c1.9,0,3.8,0,5.8,0
		c0.6,0,1-0.3,1-0.9C28.9,26.7,28.5,26.4,27.9,26.4z"/>
	<path d="M15.7,29.5c-1.5,0-2.9,1.5-2.9,3c0,1.5,1.4,2.9,2.9,2.9c1.6,0,2.9-1.2,2.9-2.9C18.7,30.9,17.3,29.5,15.7,29.5z M15.7,33.6
		c-0.7,0-1-0.4-1-1.1c0-0.7,0.4-1,1.1-1.1c0.6,0,1.1,0.3,1.1,1C16.9,33.2,16.5,33.6,15.7,33.6z"/>
	<path d="M42.7,44.9c-1.2-1.7-2.3-3.3-3.5-5c-0.3-0.5-0.7-0.8,0.1-1.3c1.7-1.2,2.2-2.9,2.2-4.9c0-3.5,0-7,0-10.6c0-3.7,0-7.4,0-11.1
		c0-3.1-2-5.1-5.1-5.2c-1.2,0-2.4-0.1-3.6,0c-0.9,0.1-1.3-0.2-1.4-1.2c-0.2-1.7-1.3-2.5-2.9-2.5c-2.3,0-4.5,0-6.8,0
		c-1.2,0-2.5,0.5-2.6,1.6c-0.2,2.5-1.8,2.2-3.4,2.1c-0.6,0-1.1,0-1.7,0C10.7,7,8.7,9,8.7,12.3c0,7.3,0,14.5,0,21.8
		c0,1.2,0.3,2.3,0.9,3.4c0.4,0.8,1.8,1,1.6,1.9c-0.2,0.9-1,1.6-1.6,2.4c-0.5,0.6-1,1.2-1.4,2c-0.4,0.9-2.2,1.9-0.9,2.8
		c1.4,1,1.8-1,2.3-1.7c0.8-1.2,1.7-1.6,3.2-1.6c7.6,0.1,15.2,0.1,22.8,0c2.5-0.1,4.5,0.3,5.6,2.8c0.2,0.5,0.7,1.2,1.4,0.7
		C43.5,46.2,43.1,45.5,42.7,44.9z M39.6,14c0,2.4,0,4.8,0,7.1c0,1-0.3,1.2-1.3,1.2c-3.5-0.1-7,0-10.5,0c-0.6,0-1.6,0.4-1.8-0.3
		c-0.2-0.9-0.5-2,0.2-2.8c2-2.1,4-4.2,6.1-6.1c0.8-0.8,2-0.1,3-0.3c0.1,0.2,0.2,0.3,0.2,0.5c-0.6,0.5-1.2,1-1.8,1.6
		c-0.5,0.5-1.4,1.2-0.6,1.9c0.7,0.7,1.3-0.1,1.8-0.6c0.9-0.9,1.9-1.8,2.8-2.8c0.4-0.4,0.8-0.7,1.3-0.5C39.9,13,39.6,13.6,39.6,14z
		 M29.5,12.8c-1.1,1.1-2.3,2.2-3.4,3.3C25.8,12.7,25.8,12.7,29.5,12.8z M21.3,5.1c2.5-0.2,5.1-0.2,7.6,0c0.6,0.1,0.7,0.6,0.7,1.2
		c0,0.7-0.5,0.6-1,0.6c-1.2,0-2.5,0-3.7,0c-1.1,0-2.3,0-3.4,0c-0.4,0-1,0.1-1-0.6C20.5,5.7,20.6,5.2,21.3,5.1z M13.8,8.7
		c7.5,0,15,0,22.5,0c1.4,0,2.4,0.7,3.1,2.3c-9.7,0-19.1,0-28.7,0C11.3,9.3,12.4,8.7,13.8,8.7z M10.4,14.1c0-1,0.3-1.4,1.3-1.3
		c3.5,0.1,7,0,10.5,0.1c0.6,0,1.6-0.5,1.7,0.4c0.2,0.9,0.5,2-0.3,2.8c-2,2-4,4.1-6,6c-0.9,0.8-2.1,0.1-3.1,0.4
		c-0.1-0.1-0.2-0.3-0.3-0.4c0.7-0.7,1.5-1.4,2.2-2.1c0.4-0.4,0.8-0.9,0.3-1.5c-0.6-0.6-1.1-0.2-1.6,0.2c-1,1-2,2-3,3
		c-0.4,0.4-0.8,0.8-1.5,0.6c-0.6-0.2-0.3-0.8-0.3-1.2C10.5,18.7,10.5,16.4,10.4,14.1z M23.9,22c-0.8,0.8-2.4,0.3-3.7,0.2
		c1.3-1.3,2.4-2.5,3.7-3.8C24.2,19.7,24.6,21.3,23.9,22z M12.3,41.3c0.4-1.3,1.2-1.8,2.5-1.7c6.8,0.1,13.6,0.1,20.4,0
		c1.3,0,2.1,0.4,2.5,1.7C29.3,41.3,20.8,41.3,12.3,41.3z M35.6,37.7c-7.1,0-14.2,0-21.3,0c-2.6,0-3.8-1.2-3.9-3.8c0-2.8,0-5.7,0-8.5
		c0-1.1,0.4-1.3,1.4-1.3c4.4,0,8.8,0,13.3,0c4.4,0,8.7,0,13.1,0c1.1,0,1.5,0.3,1.4,1.4c-0.1,2.8,0,5.6,0,8.3
		C39.6,36.5,38.4,37.7,35.6,37.7z"/>
	<path d="M34.4,29.5c-1.5,0-2.9,1.3-3,2.9c-0.1,1.6,1.1,2.9,2.8,3c1.7,0.1,3.1-1.2,3.1-2.9C37.3,31,35.9,29.5,34.4,29.5z M34.4,33.6
		c-0.7,0-1.2-0.3-1.2-1.1c0-0.7,0.4-1,1.1-1.1c0.7,0,1,0.3,1.1,1C35.4,33,35.1,33.5,34.4,33.6z"/>
	<path d="M18.1,17.9c0.5,0,0.8-0.3,0.9-0.8c0-0.5-0.2-0.9-0.8-0.9c-0.6,0-0.9,0.3-1,0.9C17.2,17.6,17.6,17.9,18.1,17.9z"/>
	<path d="M32.1,17.2c-0.5,0-0.9,0.2-0.9,0.7c-0.1,0.6,0.2,1,0.8,1c0.5,0,0.8-0.3,0.9-0.9C32.8,17.6,32.6,17.2,32.1,17.2z"/>
</g>
</svg>
